<svg width="512" height="512" viewBox="0 0 512 512" fill="none" xmlns="http://www.w3.org/2000/svg" role="img" aria-labelledby="ux-hell-logo-title ux-hell-logo-desc">
  <title id="ux-hell-logo-title">UX Hell logo</title>
  <desc id="ux-hell-logo-desc">Circular gradient logo with a stylized flame icon in white.</desc>
  <defs>
    <radialGradient id="glow" cx="50%" cy="35%" r="65%">
      <stop offset="0%" stop-color="#ffffff" stop-opacity="0.35" />
      <stop offset="100%" stop-color="#ffffff" stop-opacity="0" />
    </radialGradient>
    <linearGradient id="brand" x1="80" y1="64" x2="432" y2="448" gradientUnits="userSpaceOnUse">
      <stop offset="0%" stop-color="#e11d48" />
      <stop offset="55%" stop-color="#ea580c" />
      <stop offset="100%" stop-color="#d97706" />
    </linearGradient>
  </defs>
  <circle cx="256" cy="256" r="224" fill="url(#brand)" />
  <circle cx="256" cy="256" r="224" fill="url(#glow)" />
  <g
    fill="none"
    stroke="#ffffff"
    stroke-width="1.9"
    stroke-linecap="round"
    stroke-linejoin="round"
    transform="translate(256 256) scale(16) translate(-12 -12)"
  >
    <path d="M8.5 14.5A2.5 2.5 0 0 0 11 12c0-1.38-.5-2-1-3-1.072-2.143-.224-4.054 2-6 .5 2.5 2 4.9 4 6.5 2 1.6 3 3.5 3 5.5a7 7 0 1 1-14 0c0-1.153.433-2.294 1-3a2.5 2.5 0 0 0 2.5 2.5z" />
  </g>
</svg>
